<?xml version="1.0" encoding="UTF-8"?>
<svg xmlns="http://www.w3.org/2000/svg" xmlns:xlink="http://www.w3.org/1999/xlink" width="793.700787pt" height="446.456693pt" viewBox="0 0 793.700787 446.456693">
<defs>
<g>
<g id="glyph-0-0">
</g>
<g id="glyph-1-0">
<path d="M 2.125 0 L 2.125 -2.09375 L 7.03125 -2.09375 L 7.03125 -16.890625 L 2.6875 -13.796875 L 2.6875 -16.109375 L 7.234375 -19.234375 L 9.5 -19.234375 L 9.5 -2.09375 L 14.1875 -2.09375 L 14.1875 0 Z M 2.125 0 "/>
</g>
<g id="glyph-1-1">
<path d="M 14.375 -6.265625 C 14.375 -4.234375 13.769531 -2.632812 12.5625 -1.46875 C 11.363281 -0.3125 9.691406 0.265625 7.546875 0.265625 C 5.753906 0.265625 4.304688 -0.125 3.203125 -0.90625 C 2.109375 -1.6875 1.414062 -2.816406 1.125 -4.296875 L 3.609375 -4.59375 C 4.128906 -2.6875 5.460938 -1.734375 7.609375 -1.734375 C 8.929688 -1.734375 9.960938 -2.128906 10.703125 -2.921875 C 11.453125 -3.722656 11.828125 -4.820312 11.828125 -6.21875 C 11.828125 -7.425781 11.453125 -8.398438 10.703125 -9.140625 C 9.953125 -9.890625 8.9375 -10.265625 7.65625 -10.265625 C 7 -10.265625 6.378906 -10.160156 5.796875 -9.953125 C 5.222656 -9.742188 4.648438 -9.390625 4.078125 -8.890625 L 1.6875 -8.890625 L 2.328125 -19.234375 L 13.265625 -19.234375 L 13.265625 -17.15625 L 4.5625 -17.15625 L 4.1875 -11.046875 C 5.257812 -11.867188 6.585938 -12.28125 8.171875 -12.28125 C 10.054688 -12.28125 11.5625 -11.722656 12.6875 -10.609375 C 13.8125 -9.492188 14.375 -8.046875 14.375 -6.265625 Z M 14.375 -6.265625 "/>
</g>
<g id="glyph-2-0">
<path d="M 6.75 -18.4375 L 6.75 -11.625 L 18 -11.625 L 18 -8.0625 L 6.75 -8.0625 L 6.75 0 L 2.140625 0 L 2.140625 -22 L 18.359375 -22 L 18.359375 -18.4375 Z M 6.75 -18.4375 "/>
</g>
<g id="glyph-2-1">
<path d="M 2.234375 -19.9375 L 2.234375 -23.171875 L 6.625 -23.171875 L 6.625 -19.9375 Z M 2.234375 0 L 2.234375 -16.890625 L 6.625 -16.890625 L 6.625 0 Z M 2.234375 0 "/>
</g>
<g id="glyph-2-2">
<path d="M 13.171875 0 L 13.171875 -9.46875 C 13.171875 -12.4375 12.164062 -13.921875 10.15625 -13.921875 C 9.09375 -13.921875 8.238281 -13.460938 7.59375 -12.546875 C 6.945312 -11.640625 6.625 -10.472656 6.625 -9.046875 L 6.625 0 L 2.234375 0 L 2.234375 -13.109375 C 2.234375 -14.015625 2.21875 -14.753906 2.1875 -15.328125 C 2.164062 -15.910156 2.140625 -16.429688 2.109375 -16.890625 L 6.296875 -16.890625 C 6.328125 -16.691406 6.367188 -16.160156 6.421875 -15.296875 C 6.472656 -14.441406 6.5 -13.851562 6.5 -13.53125 L 6.5625 -13.53125 C 7.15625 -14.820312 7.894531 -15.757812 8.78125 -16.34375 C 9.675781 -16.925781 10.742188 -17.21875 11.984375 -17.21875 C 13.773438 -17.21875 15.148438 -16.664062 16.109375 -15.5625 C 17.066406 -14.457031 17.546875 -12.84375 17.546875 -10.71875 L 17.546875 0 Z M 13.171875 0 "/>
</g>
<g id="glyph-2-3">
<path d="M 6.140625 0.3125 C 4.503906 0.3125 3.226562 -0.128906 2.3125 -1.015625 C 1.394531 -1.910156 0.9375 -3.164062 0.9375 -4.78125 C 0.9375 -6.53125 1.503906 -7.859375 2.640625 -8.765625 C 3.785156 -9.679688 5.441406 -10.148438 7.609375 -10.171875 L 11.234375 -10.234375 L 11.234375 -11.09375 C 11.234375 -12.195312 11.039062 -13.015625 10.65625 -13.546875 C 10.269531 -14.085938 9.640625 -14.359375 8.765625 -14.359375 C 7.960938 -14.359375 7.367188 -14.171875 6.984375 -13.796875 C 6.609375 -13.429688 6.375 -12.820312 6.28125 -11.96875 L 1.703125 -12.1875 C 1.984375 -13.832031 2.734375 -15.078125 3.953125 -15.921875 C 5.179688 -16.773438 6.847656 -17.203125 8.953125 -17.203125 C 11.085938 -17.203125 12.734375 -16.675781 13.890625 -15.625 C 15.046875 -14.570312 15.625 -13.078125 15.625 -11.140625 L 15.625 -5 C 15.625 -4.050781 15.726562 -3.394531 15.9375 -3.03125 C 16.15625 -2.675781 16.515625 -2.5 17.015625 -2.5 C 17.347656 -2.5 17.671875 -2.53125 17.984375 -2.59375 L 17.984375 -0.21875 C 17.722656 -0.15625 17.488281 -0.0976562 17.28125 -0.046875 C 17.070312 0.00390625 16.863281 0.046875 16.65625 0.078125 C 16.445312 0.109375 16.222656 0.132812 15.984375 0.15625 C 15.753906 0.175781 15.484375 0.1875 15.171875 0.1875 C 14.066406 0.1875 13.25 -0.0820312 12.71875 -0.625 C 12.195312 -1.164062 11.882812 -1.960938 11.78125 -3.015625 L 11.6875 -3.015625 C 10.457031 -0.796875 8.609375 0.3125 6.140625 0.3125 Z M 11.234375 -7.828125 L 8.984375 -7.796875 C 7.972656 -7.753906 7.253906 -7.640625 6.828125 -7.453125 C 6.398438 -7.273438 6.070312 -7 5.84375 -6.625 C 5.625 -6.25 5.515625 -5.75 5.515625 -5.125 C 5.515625 -4.320312 5.695312 -3.722656 6.0625 -3.328125 C 6.4375 -2.941406 6.929688 -2.75 7.546875 -2.75 C 8.222656 -2.75 8.84375 -2.9375 9.40625 -3.3125 C 9.976562 -3.6875 10.425781 -4.203125 10.75 -4.859375 C 11.070312 -5.523438 11.234375 -6.226562 11.234375 -6.96875 Z M 11.234375 -7.828125 "/>
</g>
<g id="glyph-2-4">
<path d="M 2.234375 0 L 2.234375 -23.171875 L 6.625 -23.171875 L 6.625 0 Z M 2.234375 0 "/>
</g>
<g id="glyph-2-5">
</g>
<g id="glyph-2-6">
<path d="M 12.0625 -18.4375 L 12.0625 0 L 7.46875 0 L 7.46875 -18.4375 L 0.359375 -18.4375 L 0.359375 -22 L 19.1875 -22 L 19.1875 -18.4375 Z M 12.0625 -18.4375 "/>
</g>
<g id="glyph-2-7">
<path d="M 13.015625 0 L 8.5 -7.65625 L 6.625 -6.34375 L 6.625 0 L 2.234375 0 L 2.234375 -23.171875 L 6.625 -23.171875 L 6.625 -9.890625 L 12.640625 -16.890625 L 17.359375 -16.890625 L 11.421875 -10.296875 L 17.8125 0 Z M 13.015625 0 "/>
</g>
<g id="glyph-2-8">
<path d="M 9.140625 0.3125 C 6.609375 0.3125 4.660156 -0.4375 3.296875 -1.9375 C 1.929688 -3.445312 1.25 -5.640625 1.25 -8.515625 C 1.25 -11.304688 1.941406 -13.453125 3.328125 -14.953125 C 4.710938 -16.453125 6.671875 -17.203125 9.203125 -17.203125 C 11.628906 -17.203125 13.484375 -16.394531 14.765625 -14.78125 C 16.046875 -13.175781 16.6875 -10.828125 16.6875 -7.734375 L 16.6875 -7.609375 L 5.859375 -7.609375 C 5.859375 -5.960938 6.160156 -4.71875 6.765625 -3.875 C 7.378906 -3.039062 8.242188 -2.625 9.359375 -2.625 C 10.910156 -2.625 11.890625 -3.296875 12.296875 -4.640625 L 16.4375 -4.28125 C 15.238281 -1.21875 12.804688 0.3125 9.140625 0.3125 Z M 9.140625 -14.4375 C 8.117188 -14.4375 7.328125 -14.078125 6.765625 -13.359375 C 6.210938 -12.640625 5.921875 -11.632812 5.890625 -10.34375 L 12.4375 -10.34375 C 12.351562 -11.707031 12.023438 -12.726562 11.453125 -13.40625 C 10.878906 -14.09375 10.109375 -14.4375 9.140625 -14.4375 Z M 9.140625 -14.4375 "/>
</g>
<g id="glyph-2-9">
<path d="M 20.5 0 L 15.859375 0 L 13.171875 -10.296875 C 13.046875 -10.765625 12.800781 -11.921875 12.4375 -13.765625 L 11.625 -10.265625 L 8.90625 0 L 4.28125 0 L -0.09375 -16.890625 L 4.03125 -16.890625 L 6.8125 -3.984375 L 7.03125 -5.140625 L 7.421875 -6.96875 L 10.0625 -16.890625 L 14.765625 -16.890625 L 17.359375 -6.96875 C 17.503906 -6.425781 17.71875 -5.429688 18 -3.984375 L 18.4375 -6.046875 L 20.875 -16.890625 L 24.921875 -16.890625 Z M 20.5 0 "/>
</g>
<g id="glyph-2-10">
<path d="M 4.421875 6.640625 C 3.367188 6.640625 2.445312 6.570312 1.65625 6.4375 L 1.65625 3.3125 C 2.207031 3.394531 2.710938 3.4375 3.171875 3.4375 C 3.796875 3.4375 4.3125 3.335938 4.71875 3.140625 C 5.132812 2.941406 5.503906 2.613281 5.828125 2.15625 C 6.160156 1.695312 6.53125 0.921875 6.9375 -0.171875 L 0.25 -16.890625 L 4.890625 -16.890625 L 7.546875 -8.96875 C 7.953125 -7.84375 8.472656 -6.109375 9.109375 -3.765625 L 9.5 -5.25 L 10.515625 -8.90625 L 13.015625 -16.890625 L 17.609375 -16.890625 L 10.921875 0.890625 C 10.023438 3.054688 9.097656 4.554688 8.140625 5.390625 C 7.179688 6.222656 5.941406 6.640625 4.421875 6.640625 Z M 4.421875 6.640625 "/>
</g>
<g id="glyph-2-11">
<path d="M 23.53125 -11.09375 C 23.53125 -8.164062 22.804688 -5.722656 21.359375 -3.765625 C 19.921875 -1.816406 17.914062 -0.582031 15.34375 -0.0625 C 15.695312 0.96875 16.191406 1.710938 16.828125 2.171875 C 17.472656 2.628906 18.375 2.859375 19.53125 2.859375 C 20.144531 2.859375 20.765625 2.804688 21.390625 2.703125 L 21.359375 5.859375 C 20.046875 6.148438 18.785156 6.296875 17.578125 6.296875 C 15.878906 6.296875 14.472656 5.820312 13.359375 4.875 C 12.242188 3.925781 11.347656 2.351562 10.671875 0.15625 C 7.710938 -0.125 5.410156 -1.253906 3.765625 -3.234375 C 2.128906 -5.222656 1.3125 -7.84375 1.3125 -11.09375 C 1.3125 -14.625 2.289062 -17.378906 4.25 -19.359375 C 6.207031 -21.335938 8.925781 -22.328125 12.40625 -22.328125 C 15.894531 -22.328125 18.617188 -21.328125 20.578125 -19.328125 C 22.546875 -17.328125 23.53125 -14.582031 23.53125 -11.09375 Z M 18.828125 -11.09375 C 18.828125 -13.46875 18.265625 -15.328125 17.140625 -16.671875 C 16.015625 -18.023438 14.4375 -18.703125 12.40625 -18.703125 C 10.34375 -18.703125 8.75 -18.03125 7.625 -16.6875 C 6.507812 -15.351562 5.953125 -13.488281 5.953125 -11.09375 C 5.953125 -8.6875 6.519531 -6.785156 7.65625 -5.390625 C 8.800781 -3.992188 10.375 -3.296875 12.375 -3.296875 C 14.4375 -3.296875 16.023438 -3.972656 17.140625 -5.328125 C 18.265625 -6.679688 18.828125 -8.601562 18.828125 -11.09375 Z M 18.828125 -11.09375 "/>
</g>
<g id="glyph-2-12">
<path d="M 6.375 -16.890625 L 6.375 -7.421875 C 6.375 -4.453125 7.367188 -2.96875 9.359375 -2.96875 C 10.421875 -2.96875 11.273438 -3.421875 11.921875 -4.328125 C 12.578125 -5.242188 12.90625 -6.414062 12.90625 -7.84375 L 12.90625 -16.890625 L 17.296875 -16.890625 L 17.296875 -3.78125 C 17.296875 -2.34375 17.335938 -1.082031 17.421875 0 L 13.234375 0 C 13.109375 -1.5 13.046875 -2.617188 13.046875 -3.359375 L 12.96875 -3.359375 C 12.382812 -2.078125 11.640625 -1.144531 10.734375 -0.5625 C 9.835938 0.0195312 8.773438 0.3125 7.546875 0.3125 C 5.753906 0.3125 4.378906 -0.234375 3.421875 -1.328125 C 2.460938 -2.429688 1.984375 -4.046875 1.984375 -6.171875 L 1.984375 -16.890625 Z M 6.375 -16.890625 "/>
</g>
<g id="glyph-2-13">
<path d="M 16.46875 -4.9375 C 16.46875 -3.300781 15.796875 -2.015625 14.453125 -1.078125 C 13.117188 -0.148438 11.269531 0.3125 8.90625 0.3125 C 6.59375 0.3125 4.816406 -0.0507812 3.578125 -0.78125 C 2.347656 -1.519531 1.53125 -2.664062 1.125 -4.21875 L 4.984375 -4.796875 C 5.203125 -3.992188 5.578125 -3.425781 6.109375 -3.09375 C 6.648438 -2.757812 7.582031 -2.59375 8.90625 -2.59375 C 10.132812 -2.59375 11.03125 -2.75 11.59375 -3.0625 C 12.15625 -3.375 12.4375 -3.863281 12.4375 -4.53125 C 12.4375 -5.070312 12.207031 -5.5 11.75 -5.8125 C 11.300781 -6.132812 10.535156 -6.40625 9.453125 -6.625 C 6.984375 -7.113281 5.316406 -7.566406 4.453125 -7.984375 C 3.585938 -8.398438 2.925781 -8.941406 2.46875 -9.609375 C 2.019531 -10.285156 1.796875 -11.113281 1.796875 -12.09375 C 1.796875 -13.707031 2.414062 -14.960938 3.65625 -15.859375 C 4.90625 -16.765625 6.664062 -17.21875 8.9375 -17.21875 C 10.945312 -17.21875 12.5625 -16.828125 13.78125 -16.046875 C 15.007812 -15.265625 15.773438 -14.132812 16.078125 -12.65625 L 12.1875 -12.25 C 12.0625 -12.9375 11.753906 -13.445312 11.265625 -13.78125 C 10.773438 -14.125 10 -14.296875 8.9375 -14.296875 C 7.90625 -14.296875 7.128906 -14.160156 6.609375 -13.890625 C 6.085938 -13.628906 5.828125 -13.1875 5.828125 -12.5625 C 5.828125 -12.070312 6.023438 -11.679688 6.421875 -11.390625 C 6.828125 -11.109375 7.5 -10.875 8.4375 -10.6875 C 9.757812 -10.414062 10.929688 -10.132812 11.953125 -9.84375 C 12.984375 -9.5625 13.804688 -9.222656 14.421875 -8.828125 C 15.046875 -8.429688 15.539062 -7.925781 15.90625 -7.3125 C 16.28125 -6.695312 16.46875 -5.90625 16.46875 -4.9375 Z M 16.46875 -4.9375 "/>
</g>
<g id="glyph-2-14">
<path d="M 6.5625 0.28125 C 5.269531 0.28125 4.273438 -0.0664062 3.578125 -0.765625 C 2.878906 -1.472656 2.53125 -2.539062 2.53125 -3.96875 L 2.53125 -13.921875 L 0.390625 -13.921875 L 0.390625 -16.890625 L 2.75 -16.890625 L 4.125 -20.859375 L 6.875 -20.859375 L 6.875 -16.890625 L 10.0625 -16.890625 L 10.0625 -13.921875 L 6.875 -13.921875 L 6.875 -5.15625 C 6.875 -4.332031 7.03125 -3.722656 7.34375 -3.328125 C 7.65625 -2.941406 8.132812 -2.75 8.78125 -2.75 C 9.125 -2.75 9.613281 -2.820312 10.25 -2.96875 L 10.25 -0.25 C 9.164062 0.101562 7.9375 0.28125 6.5625 0.28125 Z M 6.5625 0.28125 "/>
</g>
<g id="glyph-2-15">
<path d="M 18.28125 -8.453125 C 18.28125 -5.722656 17.519531 -3.578125 16 -2.015625 C 14.476562 -0.460938 12.375 0.3125 9.6875 0.3125 C 7.0625 0.3125 5 -0.46875 3.5 -2.03125 C 2 -3.59375 1.25 -5.734375 1.25 -8.453125 C 1.25 -11.171875 2 -13.304688 3.5 -14.859375 C 5 -16.421875 7.09375 -17.203125 9.78125 -17.203125 C 12.539062 -17.203125 14.644531 -16.445312 16.09375 -14.9375 C 17.550781 -13.4375 18.28125 -11.273438 18.28125 -8.453125 Z M 13.6875 -8.453125 C 13.6875 -10.460938 13.359375 -11.921875 12.703125 -12.828125 C 12.046875 -13.734375 11.09375 -14.1875 9.84375 -14.1875 C 7.1875 -14.1875 5.859375 -12.273438 5.859375 -8.453125 C 5.859375 -6.578125 6.179688 -5.144531 6.828125 -4.15625 C 7.484375 -3.175781 8.421875 -2.6875 9.640625 -2.6875 C 12.335938 -2.6875 13.6875 -4.609375 13.6875 -8.453125 Z M 13.6875 -8.453125 "/>
</g>
<g id="glyph-2-16">
<path d="M 17.6875 -16.015625 C 17.6875 -15.003906 17.457031 -14.097656 17 -13.296875 C 16.550781 -12.492188 15.707031 -11.648438 14.46875 -10.765625 L 13.28125 -9.90625 C 12.570312 -9.394531 12.039062 -8.878906 11.6875 -8.359375 C 11.34375 -7.847656 11.15625 -7.28125 11.125 -6.65625 L 6.96875 -6.65625 C 7.03125 -7.707031 7.328125 -8.648438 7.859375 -9.484375 C 8.390625 -10.316406 9.175781 -11.097656 10.21875 -11.828125 C 11.332031 -12.597656 12.117188 -13.273438 12.578125 -13.859375 C 13.035156 -14.453125 13.265625 -15.109375 13.265625 -15.828125 C 13.265625 -16.742188 12.960938 -17.46875 12.359375 -18 C 11.765625 -18.53125 10.914062 -18.796875 9.8125 -18.796875 C 8.757812 -18.796875 7.878906 -18.488281 7.171875 -17.875 C 6.460938 -17.257812 6.046875 -16.445312 5.921875 -15.4375 L 1.46875 -15.625 C 1.75 -17.738281 2.617188 -19.382812 4.078125 -20.5625 C 5.535156 -21.738281 7.425781 -22.328125 9.75 -22.328125 C 12.21875 -22.328125 14.15625 -21.765625 15.5625 -20.640625 C 16.976562 -19.523438 17.6875 -17.984375 17.6875 -16.015625 Z M 6.84375 0 L 6.84375 -4.21875 L 11.34375 -4.21875 L 11.34375 0 Z M 6.84375 0 "/>
</g>
<g id="glyph-3-0">
<path d="M 14.796875 0 L 12.75 -5.21875 L 4.609375 -5.21875 L 2.5625 0 L 0.046875 0 L 7.34375 -17.859375 L 10.09375 -17.859375 L 17.265625 0 Z M 8.6875 -16.046875 L 8.578125 -15.6875 C 8.359375 -14.976562 8.046875 -14.078125 7.640625 -12.984375 L 5.34375 -7.109375 L 12.03125 -7.109375 L 9.734375 -13.015625 C 9.503906 -13.597656 9.269531 -14.253906 9.03125 -14.984375 Z M 8.6875 -16.046875 "/>
</g>
<g id="glyph-3-1">
</g>
<g id="glyph-3-2">
<path d="M 10.46875 0 L 10.46875 -8.703125 C 10.46875 -9.609375 10.375 -10.304688 10.1875 -10.796875 C 10.007812 -11.296875 9.726562 -11.65625 9.34375 -11.875 C 8.957031 -12.09375 8.390625 -12.203125 7.640625 -12.203125 C 6.535156 -12.203125 5.664062 -11.828125 5.03125 -11.078125 C 4.394531 -10.328125 4.078125 -9.285156 4.078125 -7.953125 L 4.078125 0 L 1.796875 0 L 1.796875 -10.796875 C 1.796875 -12.390625 1.769531 -13.363281 1.71875 -13.71875 L 3.875 -13.71875 C 3.882812 -13.675781 3.894531 -13.5625 3.90625 -13.375 C 3.914062 -13.1875 3.925781 -12.972656 3.9375 -12.734375 C 3.945312 -12.492188 3.960938 -12.039062 3.984375 -11.375 L 4.015625 -11.375 C 4.546875 -12.320312 5.15625 -12.988281 5.84375 -13.375 C 6.53125 -13.769531 7.382812 -13.96875 8.40625 -13.96875 C 9.90625 -13.96875 11.003906 -13.59375 11.703125 -12.84375 C 12.398438 -12.101562 12.75 -10.867188 12.75 -9.140625 L 12.75 0 Z M 10.46875 0 "/>
</g>
<g id="glyph-3-3">
<path d="M 13.359375 -6.875 C 13.359375 -4.46875 12.828125 -2.675781 11.765625 -1.5 C 10.710938 -0.332031 9.179688 0.25 7.171875 0.25 C 5.160156 0.25 3.644531 -0.359375 2.625 -1.578125 C 1.601562 -2.796875 1.09375 -4.5625 1.09375 -6.875 C 1.09375 -11.601562 3.140625 -13.96875 7.234375 -13.96875 C 9.335938 -13.96875 10.882812 -13.390625 11.875 -12.234375 C 12.863281 -11.085938 13.359375 -9.300781 13.359375 -6.875 Z M 10.953125 -6.875 C 10.953125 -8.769531 10.671875 -10.144531 10.109375 -11 C 9.546875 -11.851562 8.601562 -12.28125 7.28125 -12.28125 C 5.945312 -12.28125 4.976562 -11.84375 4.375 -10.96875 C 3.78125 -10.09375 3.484375 -8.726562 3.484375 -6.875 C 3.484375 -5.0625 3.773438 -3.703125 4.359375 -2.796875 C 4.953125 -1.890625 5.878906 -1.4375 7.140625 -1.4375 C 8.503906 -1.4375 9.476562 -1.875 10.0625 -2.75 C 10.65625 -3.625 10.953125 -5 10.953125 -6.875 Z M 10.953125 -6.875 "/>
</g>
<g id="glyph-3-4">
<path d="M 1.796875 0 L 1.796875 -10.53125 C 1.796875 -11.488281 1.769531 -12.550781 1.71875 -13.71875 L 3.875 -13.71875 C 3.945312 -12.164062 3.984375 -11.234375 3.984375 -10.921875 L 4.03125 -10.921875 C 4.394531 -12.097656 4.8125 -12.898438 5.28125 -13.328125 C 5.757812 -13.753906 6.429688 -13.96875 7.296875 -13.96875 C 7.597656 -13.96875 7.90625 -13.925781 8.21875 -13.84375 L 8.21875 -11.75 C 7.914062 -11.832031 7.507812 -11.875 7 -11.875 C 6.050781 -11.875 5.328125 -11.46875 4.828125 -10.65625 C 4.328125 -9.84375 4.078125 -8.675781 4.078125 -7.15625 L 4.078125 0 Z M 1.796875 0 "/>
</g>
<g id="glyph-3-5">
<path d="M 9.734375 0 L 9.734375 -8.703125 C 9.734375 -10.023438 9.550781 -10.9375 9.1875 -11.4375 C 8.820312 -11.945312 8.171875 -12.203125 7.234375 -12.203125 C 6.253906 -12.203125 5.476562 -11.832031 4.90625 -11.09375 C 4.34375 -10.351562 4.0625 -9.304688 4.0625 -7.953125 L 4.0625 0 L 1.796875 0 L 1.796875 -10.796875 C 1.796875 -12.390625 1.769531 -13.363281 1.71875 -13.71875 L 3.875 -13.71875 C 3.882812 -13.675781 3.894531 -13.5625 3.90625 -13.375 C 3.914062 -13.1875 3.925781 -12.972656 3.9375 -12.734375 C 3.945312 -12.492188 3.960938 -12.039062 3.984375 -11.375 L 4.015625 -11.375 C 4.503906 -12.34375 5.066406 -13.015625 5.703125 -13.390625 C 6.335938 -13.773438 7.113281 -13.96875 8.03125 -13.96875 C 9.070312 -13.96875 9.894531 -13.757812 10.5 -13.34375 C 11.101562 -12.9375 11.519531 -12.28125 11.75 -11.375 L 11.796875 -11.375 C 12.265625 -12.289062 12.832031 -12.953125 13.5 -13.359375 C 14.175781 -13.765625 14.992188 -13.96875 15.953125 -13.96875 C 17.335938 -13.96875 18.34375 -13.59375 18.96875 -12.84375 C 19.601562 -12.09375 19.921875 -10.859375 19.921875 -9.140625 L 19.921875 0 L 17.65625 0 L 17.65625 -8.703125 C 17.65625 -10.023438 17.472656 -10.9375 17.109375 -11.4375 C 16.753906 -11.945312 16.101562 -12.203125 15.15625 -12.203125 C 14.15625 -12.203125 13.378906 -11.832031 12.828125 -11.09375 C 12.273438 -10.351562 12 -9.304688 12 -7.953125 L 12 0 Z M 9.734375 0 "/>
</g>
<g id="glyph-3-6">
<path d="M 5.25 0.25 C 3.875 0.25 2.835938 -0.109375 2.140625 -0.828125 C 1.453125 -1.554688 1.109375 -2.554688 1.109375 -3.828125 C 1.109375 -5.242188 1.570312 -6.332031 2.5 -7.09375 C 3.4375 -7.851562 4.945312 -8.257812 7.03125 -8.3125 L 10.109375 -8.375 L 10.109375 -9.109375 C 10.109375 -10.234375 9.867188 -11.035156 9.390625 -11.515625 C 8.921875 -11.992188 8.179688 -12.234375 7.171875 -12.234375 C 6.140625 -12.234375 5.390625 -12.0625 4.921875 -11.71875 C 4.460938 -11.375 4.1875 -10.820312 4.09375 -10.0625 L 1.71875 -10.265625 C 2.101562 -12.734375 3.9375 -13.96875 7.21875 -13.96875 C 8.9375 -13.96875 10.226562 -13.570312 11.09375 -12.78125 C 11.96875 -12 12.40625 -10.859375 12.40625 -9.359375 L 12.40625 -3.453125 C 12.40625 -2.773438 12.492188 -2.265625 12.671875 -1.921875 C 12.859375 -1.578125 13.195312 -1.40625 13.6875 -1.40625 C 13.914062 -1.40625 14.164062 -1.4375 14.4375 -1.5 L 14.4375 -0.078125 C 13.863281 0.0546875 13.28125 0.125 12.6875 0.125 C 11.832031 0.125 11.210938 -0.09375 10.828125 -0.53125 C 10.453125 -0.976562 10.238281 -1.675781 10.1875 -2.625 L 10.109375 -2.625 C 9.523438 -1.570312 8.84375 -0.828125 8.0625 -0.390625 C 7.289062 0.0351562 6.351562 0.25 5.25 0.25 Z M 5.765625 -1.453125 C 6.609375 -1.453125 7.351562 -1.640625 8 -2.015625 C 8.65625 -2.398438 9.171875 -2.925781 9.546875 -3.59375 C 9.921875 -4.257812 10.109375 -4.941406 10.109375 -5.640625 L 10.109375 -6.765625 L 7.609375 -6.71875 C 6.535156 -6.695312 5.722656 -6.585938 5.171875 -6.390625 C 4.617188 -6.191406 4.191406 -5.878906 3.890625 -5.453125 C 3.597656 -5.023438 3.453125 -4.472656 3.453125 -3.796875 C 3.453125 -3.046875 3.648438 -2.46875 4.046875 -2.0625 C 4.453125 -1.65625 5.023438 -1.453125 5.765625 -1.453125 Z M 5.765625 -1.453125 "/>
</g>
<g id="glyph-3-7">
<path d="M 1.75 0 L 1.75 -18.8125 L 4.03125 -18.8125 L 4.03125 0 Z M 1.75 0 "/>
</g>
<g id="glyph-3-8">
<path d="M 2.421875 5.390625 C 1.796875 5.390625 1.269531 5.34375 0.84375 5.25 L 0.84375 3.53125 C 1.164062 3.582031 1.523438 3.609375 1.921875 3.609375 C 3.335938 3.609375 4.457031 2.566406 5.28125 0.484375 L 5.5 -0.0625 L 0.0625 -13.71875 L 2.5 -13.71875 L 5.390625 -6.140625 C 5.429688 -6.015625 5.476562 -5.867188 5.53125 -5.703125 C 5.59375 -5.546875 5.785156 -5 6.109375 -4.0625 C 6.429688 -3.125 6.601562 -2.597656 6.625 -2.484375 L 7.515625 -4.984375 L 10.53125 -13.71875 L 12.9375 -13.71875 L 7.65625 0 C 7.09375 1.457031 6.566406 2.546875 6.078125 3.265625 C 5.585938 3.984375 5.039062 4.515625 4.4375 4.859375 C 3.84375 5.210938 3.171875 5.390625 2.421875 5.390625 Z M 2.421875 5.390625 "/>
</g>
<g id="glyph-3-9">
<path d="M 10.40625 -2.203125 C 9.988281 -1.328125 9.429688 -0.695312 8.734375 -0.3125 C 8.035156 0.0625 7.171875 0.25 6.140625 0.25 C 4.398438 0.25 3.125 -0.332031 2.3125 -1.5 C 1.5 -2.664062 1.09375 -4.429688 1.09375 -6.796875 C 1.09375 -11.578125 2.773438 -13.96875 6.140625 -13.96875 C 7.179688 -13.96875 8.046875 -13.773438 8.734375 -13.390625 C 9.429688 -13.015625 9.988281 -12.414062 10.40625 -11.59375 L 10.4375 -11.59375 L 10.40625 -13.125 L 10.40625 -18.8125 L 12.6875 -18.8125 L 12.6875 -2.828125 C 12.6875 -1.398438 12.710938 -0.457031 12.765625 0 L 10.59375 0 C 10.5625 -0.132812 10.53125 -0.445312 10.5 -0.9375 C 10.476562 -1.425781 10.46875 -1.847656 10.46875 -2.203125 Z M 3.484375 -6.875 C 3.484375 -4.957031 3.738281 -3.582031 4.25 -2.75 C 4.757812 -1.925781 5.582031 -1.515625 6.71875 -1.515625 C 8.007812 -1.515625 8.945312 -1.960938 9.53125 -2.859375 C 10.113281 -3.753906 10.40625 -5.144531 10.40625 -7.03125 C 10.40625 -8.84375 10.113281 -10.171875 9.53125 -11.015625 C 8.945312 -11.859375 8.019531 -12.28125 6.75 -12.28125 C 5.59375 -12.28125 4.757812 -11.851562 4.25 -11 C 3.738281 -10.15625 3.484375 -8.78125 3.484375 -6.875 Z M 3.484375 -6.875 "/>
</g>
<g id="glyph-3-10">
<path d="M 3.5 -6.375 C 3.5 -4.800781 3.820312 -3.585938 4.46875 -2.734375 C 5.125 -1.878906 6.078125 -1.453125 7.328125 -1.453125 C 8.316406 -1.453125 9.109375 -1.648438 9.703125 -2.046875 C 10.296875 -2.453125 10.703125 -2.957031 10.921875 -3.5625 L 12.921875 -3 C 12.097656 -0.832031 10.234375 0.25 7.328125 0.25 C 5.296875 0.25 3.75 -0.351562 2.6875 -1.5625 C 1.632812 -2.769531 1.109375 -4.566406 1.109375 -6.953125 C 1.109375 -9.210938 1.632812 -10.945312 2.6875 -12.15625 C 3.75 -13.363281 5.265625 -13.96875 7.234375 -13.96875 C 11.265625 -13.96875 13.28125 -11.539062 13.28125 -6.6875 L 13.28125 -6.375 Z M 10.9375 -8.125 C 10.800781 -9.570312 10.429688 -10.625 9.828125 -11.28125 C 9.222656 -11.945312 8.347656 -12.28125 7.203125 -12.28125 C 6.097656 -12.28125 5.21875 -11.910156 4.5625 -11.171875 C 3.914062 -10.429688 3.570312 -9.414062 3.53125 -8.125 Z M 10.9375 -8.125 "/>
</g>
<g id="glyph-3-11">
<path d="M 12.046875 -3.796875 C 12.046875 -2.492188 11.554688 -1.492188 10.578125 -0.796875 C 9.597656 -0.0976562 8.234375 0.25 6.484375 0.25 C 4.773438 0.25 3.457031 -0.03125 2.53125 -0.59375 C 1.601562 -1.15625 1 -2.03125 0.71875 -3.21875 L 2.734375 -3.609375 C 2.929688 -2.878906 3.332031 -2.34375 3.9375 -2 C 4.550781 -1.65625 5.398438 -1.484375 6.484375 -1.484375 C 7.640625 -1.484375 8.484375 -1.660156 9.015625 -2.015625 C 9.554688 -2.367188 9.828125 -2.898438 9.828125 -3.609375 C 9.828125 -4.148438 9.640625 -4.585938 9.265625 -4.921875 C 8.898438 -5.265625 8.300781 -5.546875 7.46875 -5.765625 L 5.828125 -6.203125 C 4.523438 -6.535156 3.59375 -6.863281 3.03125 -7.1875 C 2.476562 -7.519531 2.046875 -7.914062 1.734375 -8.375 C 1.421875 -8.84375 1.265625 -9.414062 1.265625 -10.09375 C 1.265625 -11.34375 1.707031 -12.296875 2.59375 -12.953125 C 3.488281 -13.609375 4.789062 -13.9375 6.5 -13.9375 C 8.019531 -13.9375 9.222656 -13.671875 10.109375 -13.140625 C 11.003906 -12.609375 11.570312 -11.753906 11.8125 -10.578125 L 9.75 -10.328125 C 9.625 -10.929688 9.285156 -11.394531 8.734375 -11.71875 C 8.179688 -12.039062 7.4375 -12.203125 6.5 -12.203125 C 5.46875 -12.203125 4.707031 -12.046875 4.21875 -11.734375 C 3.726562 -11.421875 3.484375 -10.953125 3.484375 -10.328125 C 3.484375 -9.929688 3.582031 -9.609375 3.78125 -9.359375 C 3.988281 -9.109375 4.289062 -8.890625 4.6875 -8.703125 C 5.082031 -8.523438 5.921875 -8.28125 7.203125 -7.96875 C 8.410156 -7.664062 9.28125 -7.382812 9.8125 -7.125 C 10.34375 -6.875 10.757812 -6.59375 11.0625 -6.28125 C 11.375 -5.96875 11.613281 -5.601562 11.78125 -5.1875 C 11.957031 -4.78125 12.046875 -4.316406 12.046875 -3.796875 Z M 12.046875 -3.796875 "/>
</g>
<g id="glyph-3-12">
<path d="M 7.03125 -0.09375 C 6.269531 0.101562 5.5 0.203125 4.71875 0.203125 C 2.894531 0.203125 1.984375 -0.832031 1.984375 -2.90625 L 1.984375 -12.0625 L 0.390625 -12.0625 L 0.390625 -13.71875 L 2.0625 -13.71875 L 2.734375 -16.78125 L 4.265625 -16.78125 L 4.265625 -13.71875 L 6.796875 -13.71875 L 6.796875 -12.0625 L 4.265625 -12.0625 L 4.265625 -3.390625 C 4.265625 -2.734375 4.367188 -2.269531 4.578125 -2 C 4.796875 -1.738281 5.171875 -1.609375 5.703125 -1.609375 C 6.003906 -1.609375 6.445312 -1.664062 7.03125 -1.78125 Z M 7.03125 -0.09375 "/>
</g>
<g id="glyph-3-13">
<path d="M 3.984375 -13.71875 L 3.984375 -5.015625 C 3.984375 -4.117188 4.070312 -3.421875 4.25 -2.921875 C 4.425781 -2.421875 4.707031 -2.0625 5.09375 -1.84375 C 5.488281 -1.625 6.0625 -1.515625 6.8125 -1.515625 C 7.90625 -1.515625 8.769531 -1.890625 9.40625 -2.640625 C 10.039062 -3.390625 10.359375 -4.429688 10.359375 -5.765625 L 10.359375 -13.71875 L 12.640625 -13.71875 L 12.640625 -2.921875 C 12.640625 -1.328125 12.664062 -0.351562 12.71875 0 L 10.5625 0 C 10.550781 -0.0390625 10.539062 -0.15625 10.53125 -0.34375 C 10.53125 -0.53125 10.519531 -0.742188 10.5 -0.984375 C 10.488281 -1.222656 10.476562 -1.675781 10.46875 -2.34375 L 10.421875 -2.34375 C 9.898438 -1.394531 9.289062 -0.722656 8.59375 -0.328125 C 7.90625 0.0546875 7.050781 0.25 6.03125 0.25 C 4.53125 0.25 3.429688 -0.117188 2.734375 -0.859375 C 2.035156 -1.609375 1.6875 -2.847656 1.6875 -4.578125 L 1.6875 -13.71875 Z M 3.984375 -13.71875 "/>
</g>
<g id="glyph-3-14">
<path d="M 3.484375 -6.921875 C 3.484375 -5.097656 3.769531 -3.742188 4.34375 -2.859375 C 4.925781 -1.984375 5.796875 -1.546875 6.953125 -1.546875 C 7.765625 -1.546875 8.441406 -1.765625 8.984375 -2.203125 C 9.523438 -2.640625 9.859375 -3.316406 9.984375 -4.234375 L 12.296875 -4.078125 C 12.117188 -2.765625 11.554688 -1.710938 10.609375 -0.921875 C 9.660156 -0.140625 8.460938 0.25 7.015625 0.25 C 5.097656 0.25 3.632812 -0.351562 2.625 -1.5625 C 1.613281 -2.78125 1.109375 -4.550781 1.109375 -6.875 C 1.109375 -9.175781 1.613281 -10.929688 2.625 -12.140625 C 3.632812 -13.359375 5.085938 -13.96875 6.984375 -13.96875 C 8.390625 -13.96875 9.554688 -13.601562 10.484375 -12.875 C 11.410156 -12.15625 11.988281 -11.15625 12.21875 -9.875 L 9.875 -9.703125 C 9.757812 -10.460938 9.457031 -11.066406 8.96875 -11.515625 C 8.488281 -11.960938 7.804688 -12.1875 6.921875 -12.1875 C 5.710938 -12.1875 4.835938 -11.785156 4.296875 -10.984375 C 3.753906 -10.179688 3.484375 -8.828125 3.484375 -6.921875 Z M 3.484375 -6.921875 "/>
</g>
<g id="glyph-3-15">
<path d="M 1.734375 -16.640625 L 1.734375 -18.8125 L 4.015625 -18.8125 L 4.015625 -16.640625 Z M 1.734375 0 L 1.734375 -13.71875 L 4.015625 -13.71875 L 4.015625 0 Z M 1.734375 0 "/>
</g>
<g id="glyph-3-16">
<path d="M 7.765625 0 L 5.078125 0 L 0.09375 -13.71875 L 2.515625 -13.71875 L 5.546875 -4.796875 C 5.648438 -4.453125 5.941406 -3.445312 6.421875 -1.78125 L 6.859375 -3.265625 L 7.359375 -4.765625 L 10.46875 -13.71875 L 12.890625 -13.71875 Z M 7.765625 0 "/>
</g>
<g id="glyph-3-17">
<path d="M 1.15625 -5.890625 L 1.15625 -7.90625 L 7.5 -7.90625 L 7.5 -5.890625 Z M 1.15625 -5.890625 "/>
</g>
<g id="glyph-3-18">
<path d="M 13.359375 -6.921875 C 13.359375 -2.140625 11.675781 0.25 8.3125 0.25 C 7.269531 0.25 6.398438 0.0625 5.703125 -0.3125 C 5.015625 -0.6875 4.457031 -1.289062 4.03125 -2.125 L 4 -2.125 C 4 -1.863281 3.984375 -1.460938 3.953125 -0.921875 C 3.921875 -0.390625 3.894531 -0.0820312 3.875 0 L 1.671875 0 C 1.722656 -0.457031 1.75 -1.398438 1.75 -2.828125 L 1.75 -18.8125 L 4.03125 -18.8125 L 4.03125 -13.453125 C 4.03125 -12.898438 4.015625 -12.253906 3.984375 -11.515625 L 4.03125 -11.515625 C 4.457031 -12.390625 5.019531 -13.015625 5.71875 -13.390625 C 6.414062 -13.773438 7.28125 -13.96875 8.3125 -13.96875 C 10.039062 -13.96875 11.3125 -13.382812 12.125 -12.21875 C 12.945312 -11.050781 13.359375 -9.285156 13.359375 -6.921875 Z M 10.953125 -6.84375 C 10.953125 -8.757812 10.695312 -10.128906 10.1875 -10.953125 C 9.6875 -11.785156 8.863281 -12.203125 7.71875 -12.203125 C 6.4375 -12.203125 5.5 -11.765625 4.90625 -10.890625 C 4.320312 -10.015625 4.03125 -8.617188 4.03125 -6.703125 C 4.03125 -4.898438 4.316406 -3.570312 4.890625 -2.71875 C 5.460938 -1.863281 6.398438 -1.4375 7.703125 -1.4375 C 8.847656 -1.4375 9.675781 -1.859375 10.1875 -2.703125 C 10.695312 -3.554688 10.953125 -4.9375 10.953125 -6.84375 Z M 10.953125 -6.84375 "/>
</g>
<g id="glyph-3-19">
<path d="M 13.359375 -6.921875 C 13.359375 -2.140625 11.675781 0.25 8.3125 0.25 C 6.195312 0.25 4.773438 -0.539062 4.046875 -2.125 L 3.984375 -2.125 C 4.015625 -2.0625 4.03125 -1.34375 4.03125 0.03125 L 4.03125 5.390625 L 1.75 5.390625 L 1.75 -10.921875 C 1.75 -12.328125 1.722656 -13.257812 1.671875 -13.71875 L 3.875 -13.71875 C 3.882812 -13.6875 3.894531 -13.566406 3.90625 -13.359375 C 3.925781 -13.148438 3.945312 -12.828125 3.96875 -12.390625 C 3.988281 -11.960938 4 -11.671875 4 -11.515625 L 4.0625 -11.515625 C 4.46875 -12.359375 5.003906 -12.972656 5.671875 -13.359375 C 6.335938 -13.753906 7.21875 -13.953125 8.3125 -13.953125 C 10 -13.953125 11.257812 -13.382812 12.09375 -12.25 C 12.9375 -11.125 13.359375 -9.347656 13.359375 -6.921875 Z M 10.953125 -6.875 C 10.953125 -8.78125 10.691406 -10.144531 10.171875 -10.96875 C 9.660156 -11.789062 8.84375 -12.203125 7.71875 -12.203125 C 6.8125 -12.203125 6.101562 -12.007812 5.59375 -11.625 C 5.082031 -11.25 4.691406 -10.65625 4.421875 -9.84375 C 4.160156 -9.039062 4.03125 -7.988281 4.03125 -6.6875 C 4.03125 -4.894531 4.316406 -3.570312 4.890625 -2.71875 C 5.460938 -1.863281 6.398438 -1.4375 7.703125 -1.4375 C 8.828125 -1.4375 9.648438 -1.851562 10.171875 -2.6875 C 10.691406 -3.519531 10.953125 -4.914062 10.953125 -6.875 Z M 10.953125 -6.875 "/>
</g>
<g id="glyph-3-20">
<path d="M 6.953125 5.390625 C 5.453125 5.390625 4.257812 5.09375 3.375 4.5 C 2.488281 3.914062 1.914062 3.082031 1.65625 2 L 3.953125 1.671875 C 4.109375 2.304688 4.445312 2.796875 4.96875 3.140625 C 5.488281 3.484375 6.171875 3.65625 7.015625 3.65625 C 9.285156 3.65625 10.421875 2.320312 10.421875 -0.34375 L 10.421875 -2.546875 L 10.390625 -2.546875 C 9.960938 -1.671875 9.375 -1.007812 8.625 -0.5625 C 7.875 -0.125 6.992188 0.09375 5.984375 0.09375 C 4.304688 0.09375 3.070312 -0.460938 2.28125 -1.578125 C 1.488281 -2.691406 1.09375 -4.441406 1.09375 -6.828125 C 1.09375 -9.253906 1.515625 -11.046875 2.359375 -12.203125 C 3.210938 -13.359375 4.503906 -13.9375 6.234375 -13.9375 C 7.210938 -13.9375 8.054688 -13.710938 8.765625 -13.265625 C 9.484375 -12.828125 10.035156 -12.195312 10.421875 -11.375 L 10.453125 -11.375 C 10.453125 -11.625 10.46875 -12.0625 10.5 -12.6875 C 10.53125 -13.3125 10.5625 -13.65625 10.59375 -13.71875 L 12.765625 -13.71875 C 12.710938 -13.257812 12.6875 -12.3125 12.6875 -10.875 L 12.6875 -0.390625 C 12.6875 3.460938 10.773438 5.390625 6.953125 5.390625 Z M 10.421875 -6.859375 C 10.421875 -7.972656 10.269531 -8.929688 9.96875 -9.734375 C 9.664062 -10.546875 9.234375 -11.164062 8.671875 -11.59375 C 8.117188 -12.019531 7.492188 -12.234375 6.796875 -12.234375 C 5.628906 -12.234375 4.78125 -11.8125 4.25 -10.96875 C 3.71875 -10.125 3.453125 -8.753906 3.453125 -6.859375 C 3.453125 -4.984375 3.695312 -3.632812 4.1875 -2.8125 C 4.6875 -1.988281 5.546875 -1.578125 6.765625 -1.578125 C 7.484375 -1.578125 8.117188 -1.789062 8.671875 -2.21875 C 9.234375 -2.644531 9.664062 -3.25 9.96875 -4.03125 C 10.269531 -4.820312 10.421875 -5.765625 10.421875 -6.859375 Z M 10.421875 -6.859375 "/>
</g>
<g id="glyph-3-21">
<path d="M 1.046875 0 L 1.046875 -1.734375 L 8.71875 -11.953125 L 1.484375 -11.953125 L 1.484375 -13.71875 L 11.421875 -13.71875 L 11.421875 -11.984375 L 3.734375 -1.765625 L 11.6875 -1.765625 L 11.6875 0 Z M 1.046875 0 "/>
</g>
<g id="glyph-3-22">
<path d="M 14.890625 0 L 12.234375 0 L 9.84375 -9.703125 L 9.390625 -11.84375 C 9.304688 -11.457031 9.179688 -10.90625 9.015625 -10.1875 C 8.859375 -9.476562 8 -6.082031 6.4375 0 L 3.796875 0 L -0.03125 -13.71875 L 2.21875 -13.71875 L 4.546875 -4.40625 C 4.597656 -4.195312 4.773438 -3.359375 5.078125 -1.890625 L 5.296875 -2.828125 L 8.171875 -13.71875 L 10.609375 -13.71875 L 13.015625 -4.296875 L 13.59375 -1.890625 L 13.984375 -3.65625 L 16.578125 -13.71875 L 18.8125 -13.71875 Z M 14.890625 0 "/>
</g>
<g id="glyph-3-23">
<path d="M 4.015625 -11.375 C 4.503906 -12.269531 5.09375 -12.925781 5.78125 -13.34375 C 6.476562 -13.757812 7.351562 -13.96875 8.40625 -13.96875 C 9.894531 -13.96875 10.988281 -13.597656 11.6875 -12.859375 C 12.394531 -12.117188 12.75 -10.878906 12.75 -9.140625 L 12.75 0 L 10.46875 0 L 10.46875 -8.703125 C 10.46875 -9.660156 10.375 -10.375 10.1875 -10.84375 C 10.007812 -11.3125 9.71875 -11.65625 9.3125 -11.875 C 8.914062 -12.09375 8.359375 -12.203125 7.640625 -12.203125 C 6.554688 -12.203125 5.691406 -11.832031 5.046875 -11.09375 C 4.398438 -10.351562 4.078125 -9.351562 4.078125 -8.09375 L 4.078125 0 L 1.796875 0 L 1.796875 -18.8125 L 4.078125 -18.8125 L 4.078125 -13.921875 C 4.078125 -13.410156 4.0625 -12.878906 4.03125 -12.328125 C 4.007812 -11.773438 3.992188 -11.457031 3.984375 -11.375 Z M 4.015625 -11.375 "/>
</g>
<g id="glyph-3-24">
<path d="M 2.375 0 L 2.375 -2.78125 L 4.84375 -2.78125 L 4.84375 0 Z M 2.375 0 "/>
</g>
<g id="glyph-4-0">
<path d="M 1.203125 -8.328125 C 1.203125 -11.003906 1.921875 -13.078125 3.359375 -14.546875 C 4.796875 -16.015625 6.816406 -16.75 9.421875 -16.75 C 11.242188 -16.75 12.722656 -16.4375 13.859375 -15.8125 C 15.003906 -15.195312 15.882812 -14.210938 16.5 -12.859375 L 14.375 -12.21875 C 13.90625 -13.15625 13.257812 -13.835938 12.4375 -14.265625 C 11.613281 -14.703125 10.585938 -14.921875 9.359375 -14.921875 C 7.453125 -14.921875 5.992188 -14.34375 4.984375 -13.1875 C 3.984375 -12.039062 3.484375 -10.421875 3.484375 -8.328125 C 3.484375 -6.242188 4.015625 -4.597656 5.078125 -3.390625 C 6.148438 -2.179688 7.628906 -1.578125 9.515625 -1.578125 C 10.597656 -1.578125 11.601562 -1.738281 12.53125 -2.0625 C 13.46875 -2.394531 14.222656 -2.84375 14.796875 -3.40625 L 14.796875 -6.375 L 9.875 -6.375 L 9.875 -8.25 L 16.859375 -8.25 L 16.859375 -2.5625 C 15.984375 -1.675781 14.910156 -0.988281 13.640625 -0.5 C 12.378906 -0.0078125 11.003906 0.234375 9.515625 0.234375 C 7.796875 0.234375 6.3125 -0.109375 5.0625 -0.796875 C 3.8125 -1.484375 2.851562 -2.472656 2.1875 -3.765625 C 1.53125 -5.054688 1.203125 -6.578125 1.203125 -8.328125 Z M 1.203125 -8.328125 "/>
</g>
<g id="glyph-4-1">
<path d="M 4.84375 0.234375 C 3.570312 0.234375 2.613281 -0.0976562 1.96875 -0.765625 C 1.332031 -1.441406 1.015625 -2.363281 1.015625 -3.53125 C 1.015625 -4.84375 1.445312 -5.847656 2.3125 -6.546875 C 3.175781 -7.253906 4.566406 -7.632812 6.484375 -7.6875 L 9.328125 -7.734375 L 9.328125 -8.421875 C 9.328125 -9.453125 9.109375 -10.1875 8.671875 -10.625 C 8.234375 -11.070312 7.546875 -11.296875 6.609375 -11.296875 C 5.671875 -11.296875 4.984375 -11.132812 4.546875 -10.8125 C 4.117188 -10.5 3.863281 -9.988281 3.78125 -9.28125 L 1.578125 -9.484375 C 1.941406 -11.765625 3.632812 -12.90625 6.65625 -12.90625 C 8.25 -12.90625 9.445312 -12.539062 10.25 -11.8125 C 11.0625 -11.082031 11.46875 -10.023438 11.46875 -8.640625 L 11.46875 -3.1875 C 11.46875 -2.5625 11.546875 -2.085938 11.703125 -1.765625 C 11.867188 -1.453125 12.179688 -1.296875 12.640625 -1.296875 C 12.847656 -1.296875 13.082031 -1.320312 13.34375 -1.375 L 13.34375 -0.0625 C 12.8125 0.0507812 12.269531 0.109375 11.71875 0.109375 C 10.9375 0.109375 10.363281 -0.09375 10 -0.5 C 9.644531 -0.90625 9.445312 -1.546875 9.40625 -2.421875 L 9.328125 -2.421875 C 8.796875 -1.453125 8.171875 -0.765625 7.453125 -0.359375 C 6.734375 0.0351562 5.863281 0.234375 4.84375 0.234375 Z M 5.328125 -1.34375 C 6.097656 -1.34375 6.785156 -1.519531 7.390625 -1.875 C 7.992188 -2.226562 8.46875 -2.707031 8.8125 -3.3125 C 9.15625 -3.925781 9.328125 -4.5625 9.328125 -5.21875 L 9.328125 -6.25 L 7.03125 -6.203125 C 6.039062 -6.191406 5.285156 -6.09375 4.765625 -5.90625 C 4.253906 -5.71875 3.863281 -5.425781 3.59375 -5.03125 C 3.320312 -4.644531 3.1875 -4.132812 3.1875 -3.5 C 3.1875 -2.8125 3.367188 -2.28125 3.734375 -1.90625 C 4.109375 -1.53125 4.640625 -1.34375 5.328125 -1.34375 Z M 5.328125 -1.34375 "/>
</g>
<g id="glyph-4-2">
</g>
<g id="glyph-4-3">
<path d="M 1.609375 0 L 1.609375 -17.375 L 3.71875 -17.375 L 3.71875 0 Z M 1.609375 0 "/>
</g>
<g id="glyph-4-4">
<path d="M 3.234375 -5.890625 C 3.234375 -4.441406 3.53125 -3.320312 4.125 -2.53125 C 4.726562 -1.738281 5.609375 -1.34375 6.765625 -1.34375 C 7.679688 -1.34375 8.414062 -1.523438 8.96875 -1.890625 C 9.519531 -2.265625 9.890625 -2.734375 10.078125 -3.296875 L 11.9375 -2.765625 C 11.175781 -0.765625 9.453125 0.234375 6.765625 0.234375 C 4.890625 0.234375 3.460938 -0.320312 2.484375 -1.4375 C 1.503906 -2.550781 1.015625 -4.210938 1.015625 -6.421875 C 1.015625 -8.515625 1.503906 -10.117188 2.484375 -11.234375 C 3.460938 -12.347656 4.863281 -12.90625 6.6875 -12.90625 C 10.40625 -12.90625 12.265625 -10.660156 12.265625 -6.171875 L 12.265625 -5.890625 Z M 10.09375 -7.5 C 9.976562 -8.84375 9.640625 -9.816406 9.078125 -10.421875 C 8.515625 -11.035156 7.707031 -11.34375 6.65625 -11.34375 C 5.632812 -11.34375 4.820312 -11 4.21875 -10.3125 C 3.625 -9.632812 3.300781 -8.695312 3.25 -7.5 Z M 10.09375 -7.5 "/>
</g>
<g id="glyph-4-5">
<path d="M 4.234375 -11.140625 L 4.234375 0 L 2.125 0 L 2.125 -11.140625 L 0.34375 -11.140625 L 0.34375 -12.671875 L 2.125 -12.671875 L 2.125 -14.09375 C 2.125 -15.25 2.375 -16.082031 2.875 -16.59375 C 3.382812 -17.101562 4.164062 -17.359375 5.21875 -17.359375 C 5.800781 -17.359375 6.296875 -17.3125 6.703125 -17.21875 L 6.703125 -15.609375 C 6.347656 -15.671875 6.035156 -15.703125 5.765625 -15.703125 C 5.222656 -15.703125 4.832031 -15.566406 4.59375 -15.296875 C 4.351562 -15.023438 4.234375 -14.53125 4.234375 -13.8125 L 4.234375 -12.671875 L 6.703125 -12.671875 L 6.703125 -11.140625 Z M 4.234375 -11.140625 "/>
</g>
<g id="glyph-4-6">
<path d="M 6.484375 -0.09375 C 5.796875 0.09375 5.085938 0.1875 4.359375 0.1875 C 2.671875 0.1875 1.828125 -0.769531 1.828125 -2.6875 L 1.828125 -11.140625 L 0.359375 -11.140625 L 0.359375 -12.671875 L 1.90625 -12.671875 L 2.53125 -15.5 L 3.9375 -15.5 L 3.9375 -12.671875 L 6.28125 -12.671875 L 6.28125 -11.140625 L 3.9375 -11.140625 L 3.9375 -3.140625 C 3.9375 -2.523438 4.035156 -2.09375 4.234375 -1.84375 C 4.429688 -1.601562 4.773438 -1.484375 5.265625 -1.484375 C 5.546875 -1.484375 5.953125 -1.539062 6.484375 -1.65625 Z M 6.484375 -0.09375 "/>
</g>
<g id="glyph-4-7">
<path d="M 12.328125 -6.390625 C 12.328125 -1.972656 10.773438 0.234375 7.671875 0.234375 C 6.710938 0.234375 5.914062 0.0625 5.28125 -0.28125 C 4.644531 -0.632812 4.125 -1.195312 3.71875 -1.96875 L 3.703125 -1.96875 C 3.703125 -1.726562 3.6875 -1.359375 3.65625 -0.859375 C 3.625 -0.359375 3.597656 -0.0703125 3.578125 0 L 1.546875 0 C 1.585938 -0.414062 1.609375 -1.285156 1.609375 -2.609375 L 1.609375 -17.375 L 3.71875 -17.375 L 3.71875 -12.421875 C 3.71875 -11.921875 3.703125 -11.328125 3.671875 -10.640625 L 3.71875 -10.640625 C 4.113281 -11.453125 4.628906 -12.03125 5.265625 -12.375 C 5.910156 -12.726562 6.710938 -12.90625 7.671875 -12.90625 C 9.273438 -12.90625 10.453125 -12.363281 11.203125 -11.28125 C 11.953125 -10.207031 12.328125 -8.578125 12.328125 -6.390625 Z M 10.125 -6.328125 C 10.125 -8.097656 9.890625 -9.363281 9.421875 -10.125 C 8.953125 -10.894531 8.1875 -11.28125 7.125 -11.28125 C 5.945312 -11.28125 5.082031 -10.875 4.53125 -10.0625 C 3.988281 -9.25 3.71875 -7.957031 3.71875 -6.1875 C 3.71875 -4.53125 3.984375 -3.304688 4.515625 -2.515625 C 5.046875 -1.722656 5.910156 -1.328125 7.109375 -1.328125 C 8.171875 -1.328125 8.9375 -1.71875 9.40625 -2.5 C 9.882812 -3.28125 10.125 -4.554688 10.125 -6.328125 Z M 10.125 -6.328125 "/>
</g>
<g id="glyph-4-8">
<path d="M 3.71875 -10.5 C 4.164062 -11.332031 4.707031 -11.941406 5.34375 -12.328125 C 5.976562 -12.710938 6.785156 -12.90625 7.765625 -12.90625 C 9.140625 -12.90625 10.148438 -12.5625 10.796875 -11.875 C 11.453125 -11.195312 11.78125 -10.050781 11.78125 -8.4375 L 11.78125 0 L 9.65625 0 L 9.65625 -8.03125 C 9.65625 -8.925781 9.570312 -9.585938 9.40625 -10.015625 C 9.25 -10.453125 8.984375 -10.769531 8.609375 -10.96875 C 8.234375 -11.175781 7.710938 -11.28125 7.046875 -11.28125 C 6.054688 -11.28125 5.257812 -10.9375 4.65625 -10.25 C 4.0625 -9.5625 3.765625 -8.632812 3.765625 -7.46875 L 3.765625 0 L 1.65625 0 L 1.65625 -17.375 L 3.765625 -17.375 L 3.765625 -12.859375 C 3.765625 -12.378906 3.75 -11.882812 3.71875 -11.375 C 3.695312 -10.875 3.679688 -10.582031 3.671875 -10.5 Z M 3.71875 -10.5 "/>
</g>
<g id="glyph-4-9">
<path d="M 1.609375 -15.359375 L 1.609375 -17.375 L 3.71875 -17.375 L 3.71875 -15.359375 Z M 1.609375 0 L 1.609375 -12.671875 L 3.71875 -12.671875 L 3.71875 0 Z M 1.609375 0 "/>
</g>
<g id="glyph-4-10">
<path d="M 9.65625 0 L 9.65625 -8.03125 C 9.65625 -8.863281 9.570312 -9.507812 9.40625 -9.96875 C 9.25 -10.4375 8.988281 -10.769531 8.625 -10.96875 C 8.269531 -11.175781 7.742188 -11.28125 7.046875 -11.28125 C 6.035156 -11.28125 5.234375 -10.929688 4.640625 -10.234375 C 4.054688 -9.535156 3.765625 -8.570312 3.765625 -7.34375 L 3.765625 0 L 1.65625 0 L 1.65625 -9.96875 C 1.65625 -11.4375 1.632812 -12.335938 1.59375 -12.671875 L 3.578125 -12.671875 C 3.585938 -12.628906 3.597656 -12.519531 3.609375 -12.34375 C 3.617188 -12.175781 3.628906 -11.984375 3.640625 -11.765625 C 3.648438 -11.546875 3.660156 -11.125 3.671875 -10.5 L 3.71875 -10.5 C 4.195312 -11.375 4.753906 -11.992188 5.390625 -12.359375 C 6.023438 -12.722656 6.816406 -12.90625 7.765625 -12.90625 C 9.148438 -12.90625 10.164062 -12.554688 10.8125 -11.859375 C 11.457031 -11.171875 11.78125 -10.03125 11.78125 -8.4375 L 11.78125 0 Z M 9.65625 0 "/>
</g>
<g id="glyph-4-11">
<path d="M 9.609375 -2.03125 C 9.222656 -1.21875 8.707031 -0.632812 8.0625 -0.28125 C 7.414062 0.0625 6.617188 0.234375 5.671875 0.234375 C 4.066406 0.234375 2.882812 -0.300781 2.125 -1.375 C 1.375 -2.457031 1 -4.09375 1 -6.28125 C 1 -10.695312 2.554688 -12.90625 5.671875 -12.90625 C 6.628906 -12.90625 7.425781 -12.726562 8.0625 -12.375 C 8.707031 -12.03125 9.222656 -11.472656 9.609375 -10.703125 L 9.640625 -10.703125 L 9.609375 -12.125 L 9.609375 -17.375 L 11.71875 -17.375 L 11.71875 -2.609375 C 11.71875 -1.285156 11.742188 -0.414062 11.796875 0 L 9.78125 0 C 9.757812 -0.125 9.734375 -0.410156 9.703125 -0.859375 C 9.671875 -1.316406 9.65625 -1.707031 9.65625 -2.03125 Z M 3.21875 -6.34375 C 3.21875 -4.570312 3.453125 -3.300781 3.921875 -2.53125 C 4.390625 -1.769531 5.148438 -1.390625 6.203125 -1.390625 C 7.398438 -1.390625 8.265625 -1.800781 8.796875 -2.625 C 9.335938 -3.457031 9.609375 -4.742188 9.609375 -6.484375 C 9.609375 -8.160156 9.335938 -9.390625 8.796875 -10.171875 C 8.265625 -10.953125 7.410156 -11.34375 6.234375 -11.34375 C 5.171875 -11.34375 4.398438 -10.953125 3.921875 -10.171875 C 3.453125 -9.390625 3.21875 -8.113281 3.21875 -6.34375 Z M 3.21875 -6.34375 "/>
</g>
<g id="glyph-4-12">
<path d="M 7.859375 -7.125 L 7.859375 -2.109375 L 6.140625 -2.109375 L 6.140625 -7.125 L 1.171875 -7.125 L 1.171875 -8.828125 L 6.140625 -8.828125 L 6.140625 -13.84375 L 7.859375 -13.84375 L 7.859375 -8.828125 L 12.828125 -8.828125 L 12.828125 -7.125 Z M 7.859375 -7.125 "/>
</g>
<g id="glyph-4-13">
<path d="M 13.015625 0 L 8.0625 -7.21875 L 3.015625 0 L 0.53125 0 L 6.8125 -8.578125 L 1.015625 -16.5 L 3.484375 -16.5 L 8.078125 -10.03125 L 12.546875 -16.5 L 15.015625 -16.5 L 9.375 -8.65625 L 15.5 0 Z M 13.015625 0 "/>
</g>
<g id="glyph-4-14">
<path d="M 4.203125 -14.671875 L 4.203125 -8.53125 L 13.40625 -8.53125 L 13.40625 -6.6875 L 4.203125 -6.6875 L 4.203125 0 L 1.96875 0 L 1.96875 -16.5 L 13.6875 -16.5 L 13.6875 -14.671875 Z M 4.203125 -14.671875 "/>
</g>
<g id="glyph-4-15">
<path d="M 1.1875 2.046875 L 1.1875 1.1875 C 1.613281 0.320312 2.304688 -0.503906 3.265625 -1.296875 C 3.660156 -1.628906 4.054688 -1.929688 4.453125 -2.203125 C 4.847656 -2.484375 5.203125 -2.757812 5.515625 -3.03125 C 6.222656 -3.65625 6.578125 -4.257812 6.578125 -4.84375 C 6.578125 -6.007812 5.941406 -6.59375 4.671875 -6.59375 C 4.097656 -6.59375 3.628906 -6.453125 3.265625 -6.171875 C 2.898438 -5.890625 2.6875 -5.492188 2.625 -4.984375 L 1.25 -5.109375 C 1.351562 -5.859375 1.707031 -6.457031 2.3125 -6.90625 C 2.925781 -7.363281 3.734375 -7.59375 4.734375 -7.59375 C 5.742188 -7.59375 6.53125 -7.363281 7.09375 -6.90625 C 7.664062 -6.457031 7.953125 -5.816406 7.953125 -4.984375 C 7.953125 -4.265625 7.582031 -3.535156 6.84375 -2.796875 C 6.476562 -2.429688 5.894531 -1.953125 5.09375 -1.359375 C 4.300781 -0.773438 3.734375 -0.316406 3.390625 0.015625 C 3.046875 0.359375 2.800781 0.691406 2.65625 1.015625 L 8.109375 1.015625 L 8.109375 2.046875 Z M 1.1875 2.046875 "/>
</g>
<g id="glyph-4-16">
<path d="M 3.21875 -6.390625 C 3.21875 -4.703125 3.484375 -3.453125 4.015625 -2.640625 C 4.546875 -1.828125 5.347656 -1.421875 6.421875 -1.421875 C 7.171875 -1.421875 7.796875 -1.625 8.296875 -2.03125 C 8.796875 -2.4375 9.109375 -3.0625 9.234375 -3.90625 L 11.359375 -3.765625 C 11.191406 -2.546875 10.671875 -1.570312 9.796875 -0.84375 C 8.921875 -0.125 7.8125 0.234375 6.46875 0.234375 C 4.695312 0.234375 3.34375 -0.320312 2.40625 -1.4375 C 1.476562 -2.5625 1.015625 -4.195312 1.015625 -6.34375 C 1.015625 -8.476562 1.484375 -10.101562 2.421875 -11.21875 C 3.359375 -12.34375 4.703125 -12.90625 6.453125 -12.90625 C 7.742188 -12.90625 8.816406 -12.566406 9.671875 -11.890625 C 10.535156 -11.222656 11.078125 -10.300781 11.296875 -9.125 L 9.125 -8.953125 C 9.007812 -9.660156 8.726562 -10.21875 8.28125 -10.625 C 7.84375 -11.039062 7.210938 -11.25 6.390625 -11.25 C 5.273438 -11.25 4.46875 -10.878906 3.96875 -10.140625 C 3.46875 -9.398438 3.21875 -8.148438 3.21875 -6.390625 Z M 3.21875 -6.390625 "/>
</g>
<g id="glyph-4-17">
<path d="M 9 0 L 9 -8.03125 C 9 -9.257812 8.828125 -10.109375 8.484375 -10.578125 C 8.148438 -11.046875 7.546875 -11.28125 6.671875 -11.28125 C 5.773438 -11.28125 5.066406 -10.9375 4.546875 -10.25 C 4.023438 -9.5625 3.765625 -8.59375 3.765625 -7.34375 L 3.765625 0 L 1.65625 0 L 1.65625 -9.96875 C 1.65625 -11.4375 1.632812 -12.335938 1.59375 -12.671875 L 3.578125 -12.671875 C 3.585938 -12.628906 3.597656 -12.519531 3.609375 -12.34375 C 3.617188 -12.175781 3.628906 -11.984375 3.640625 -11.765625 C 3.648438 -11.546875 3.660156 -11.125 3.671875 -10.5 L 3.71875 -10.5 C 4.164062 -11.40625 4.679688 -12.03125 5.265625 -12.375 C 5.847656 -12.726562 6.5625 -12.90625 7.40625 -12.90625 C 8.375 -12.90625 9.132812 -12.710938 9.6875 -12.328125 C 10.25 -11.953125 10.640625 -11.34375 10.859375 -10.5 L 10.890625 -10.5 C 11.328125 -11.351562 11.851562 -11.96875 12.46875 -12.34375 C 13.09375 -12.71875 13.847656 -12.90625 14.734375 -12.90625 C 16.015625 -12.90625 16.941406 -12.554688 17.515625 -11.859375 C 18.097656 -11.171875 18.390625 -10.03125 18.390625 -8.4375 L 18.390625 0 L 16.3125 0 L 16.3125 -8.03125 C 16.3125 -9.257812 16.144531 -10.109375 15.8125 -10.578125 C 15.476562 -11.046875 14.875 -11.28125 14 -11.28125 C 13.070312 -11.28125 12.351562 -10.9375 11.84375 -10.25 C 11.332031 -9.570312 11.078125 -8.601562 11.078125 -7.34375 L 11.078125 0 Z M 9 0 "/>
</g>
<g id="glyph-4-18">
<path d="M 11.125 -3.5 C 11.125 -2.300781 10.671875 -1.378906 9.765625 -0.734375 C 8.867188 -0.0859375 7.609375 0.234375 5.984375 0.234375 C 4.410156 0.234375 3.191406 -0.0234375 2.328125 -0.546875 C 1.472656 -1.066406 0.921875 -1.875 0.671875 -2.96875 L 2.53125 -3.34375 C 2.707031 -2.65625 3.078125 -2.15625 3.640625 -1.84375 C 4.203125 -1.53125 4.984375 -1.375 5.984375 -1.375 C 7.054688 -1.375 7.835938 -1.535156 8.328125 -1.859375 C 8.828125 -2.191406 9.078125 -2.6875 9.078125 -3.34375 C 9.078125 -3.84375 8.90625 -4.25 8.5625 -4.5625 C 8.21875 -4.875 7.660156 -5.128906 6.890625 -5.328125 L 5.390625 -5.734375 C 4.179688 -6.035156 3.316406 -6.335938 2.796875 -6.640625 C 2.285156 -6.941406 1.882812 -7.304688 1.59375 -7.734375 C 1.3125 -8.171875 1.171875 -8.703125 1.171875 -9.328125 C 1.171875 -10.484375 1.582031 -11.363281 2.40625 -11.96875 C 3.226562 -12.570312 4.425781 -12.875 6 -12.875 C 7.40625 -12.875 8.519531 -12.625 9.34375 -12.125 C 10.164062 -11.632812 10.6875 -10.847656 10.90625 -9.765625 L 9 -9.53125 C 8.882812 -10.09375 8.570312 -10.523438 8.0625 -10.828125 C 7.550781 -11.128906 6.863281 -11.28125 6 -11.28125 C 5.050781 -11.28125 4.347656 -11.132812 3.890625 -10.84375 C 3.441406 -10.550781 3.21875 -10.113281 3.21875 -9.53125 C 3.21875 -9.175781 3.3125 -8.878906 3.5 -8.640625 C 3.6875 -8.410156 3.960938 -8.210938 4.328125 -8.046875 C 4.703125 -7.878906 5.476562 -7.648438 6.65625 -7.359375 C 7.769531 -7.078125 8.570312 -6.816406 9.0625 -6.578125 C 9.550781 -6.347656 9.9375 -6.085938 10.21875 -5.796875 C 10.507812 -5.503906 10.734375 -5.171875 10.890625 -4.796875 C 11.046875 -4.421875 11.125 -3.988281 11.125 -3.5 Z M 11.125 -3.5 "/>
</g>
<g id="glyph-4-19">
<path d="M 1.65625 0 L 1.65625 -9.71875 C 1.65625 -10.613281 1.632812 -11.597656 1.59375 -12.671875 L 3.578125 -12.671875 C 3.640625 -11.234375 3.671875 -10.367188 3.671875 -10.078125 L 3.71875 -10.078125 C 4.0625 -11.171875 4.453125 -11.914062 4.890625 -12.3125 C 5.328125 -12.707031 5.941406 -12.90625 6.734375 -12.90625 C 7.015625 -12.90625 7.300781 -12.863281 7.59375 -12.78125 L 7.59375 -10.859375 C 7.3125 -10.929688 6.9375 -10.96875 6.46875 -10.96875 C 5.59375 -10.96875 4.921875 -10.59375 4.453125 -9.84375 C 3.992188 -9.09375 3.765625 -8.015625 3.765625 -6.609375 L 3.765625 0 Z M 1.65625 0 "/>
</g>
<g id="glyph-4-20">
<path d="M 2.234375 4.984375 C 1.660156 4.984375 1.175781 4.9375 0.78125 4.84375 L 0.78125 3.265625 C 1.082031 3.316406 1.410156 3.34375 1.765625 3.34375 C 3.078125 3.34375 4.117188 2.375 4.890625 0.4375 L 5.078125 -0.0625 L 0.0625 -12.671875 L 2.3125 -12.671875 L 4.984375 -5.671875 C 5.015625 -5.554688 5.054688 -5.421875 5.109375 -5.265625 C 5.171875 -5.117188 5.347656 -4.613281 5.640625 -3.75 C 5.941406 -2.882812 6.101562 -2.398438 6.125 -2.296875 L 6.9375 -4.609375 L 9.71875 -12.671875 L 11.953125 -12.671875 L 7.078125 0 C 6.546875 1.351562 6.054688 2.359375 5.609375 3.015625 C 5.160156 3.671875 4.660156 4.160156 4.109375 4.484375 C 3.554688 4.816406 2.929688 4.984375 2.234375 4.984375 Z M 2.234375 4.984375 "/>
</g>
<g id="glyph-4-21">
<path d="M 3.671875 -12.671875 L 3.671875 -4.640625 C 3.671875 -3.804688 3.753906 -3.15625 3.921875 -2.6875 C 4.085938 -2.226562 4.347656 -1.894531 4.703125 -1.6875 C 5.066406 -1.488281 5.59375 -1.390625 6.28125 -1.390625 C 7.300781 -1.390625 8.101562 -1.738281 8.6875 -2.4375 C 9.269531 -3.132812 9.5625 -4.097656 9.5625 -5.328125 L 9.5625 -12.671875 L 11.671875 -12.671875 L 11.671875 -2.703125 C 11.671875 -1.222656 11.695312 -0.320312 11.75 0 L 9.75 0 C 9.75 -0.0390625 9.742188 -0.144531 9.734375 -0.3125 C 9.722656 -0.488281 9.710938 -0.6875 9.703125 -0.90625 C 9.691406 -1.125 9.675781 -1.546875 9.65625 -2.171875 L 9.625 -2.171875 C 9.144531 -1.296875 8.582031 -0.675781 7.9375 -0.3125 C 7.300781 0.0507812 6.515625 0.234375 5.578125 0.234375 C 4.179688 0.234375 3.160156 -0.109375 2.515625 -0.796875 C 1.878906 -1.492188 1.5625 -2.640625 1.5625 -4.234375 L 1.5625 -12.671875 Z M 3.671875 -12.671875 "/>
</g>
<g id="glyph-4-22">
<path d="M 12.328125 -6.34375 C 12.328125 -4.125 11.835938 -2.472656 10.859375 -1.390625 C 9.890625 -0.304688 8.472656 0.234375 6.609375 0.234375 C 4.765625 0.234375 3.367188 -0.328125 2.421875 -1.453125 C 1.472656 -2.585938 1 -4.21875 1 -6.34375 C 1 -10.71875 2.894531 -12.90625 6.6875 -12.90625 C 8.625 -12.90625 10.046875 -12.367188 10.953125 -11.296875 C 11.867188 -10.234375 12.328125 -8.582031 12.328125 -6.34375 Z M 10.125 -6.34375 C 10.125 -8.09375 9.863281 -9.363281 9.34375 -10.15625 C 8.820312 -10.945312 7.945312 -11.34375 6.71875 -11.34375 C 5.488281 -11.34375 4.597656 -10.9375 4.046875 -10.125 C 3.492188 -9.320312 3.21875 -8.0625 3.21875 -6.34375 C 3.21875 -4.675781 3.488281 -3.421875 4.03125 -2.578125 C 4.570312 -1.742188 5.425781 -1.328125 6.59375 -1.328125 C 7.851562 -1.328125 8.753906 -1.734375 9.296875 -2.546875 C 9.847656 -3.359375 10.125 -4.625 10.125 -6.34375 Z M 10.125 -6.34375 "/>
</g>
<g id="glyph-4-23">
<path d="M 1.0625 -5.4375 L 1.0625 -7.3125 L 6.921875 -7.3125 L 6.921875 -5.4375 Z M 1.0625 -5.4375 "/>
</g>
<g id="glyph-4-24">
<path d="M 9.5625 0 L 5.265625 -5.78125 L 3.71875 -4.515625 L 3.71875 0 L 1.609375 0 L 1.609375 -17.375 L 3.71875 -17.375 L 3.71875 -6.515625 L 9.28125 -12.671875 L 11.765625 -12.671875 L 6.609375 -7.21875 L 12.03125 0 Z M 9.5625 0 "/>
</g>
<g id="glyph-4-25">
<path d="M 6.421875 4.984375 C 5.035156 4.984375 3.929688 4.707031 3.109375 4.15625 C 2.296875 3.613281 1.769531 2.84375 1.53125 1.84375 L 3.65625 1.546875 C 3.789062 2.128906 4.097656 2.578125 4.578125 2.890625 C 5.066406 3.210938 5.695312 3.375 6.46875 3.375 C 8.570312 3.375 9.625 2.144531 9.625 -0.3125 L 9.625 -2.359375 L 9.609375 -2.359375 C 9.203125 -1.546875 8.648438 -0.929688 7.953125 -0.515625 C 7.265625 -0.109375 6.457031 0.09375 5.53125 0.09375 C 3.976562 0.09375 2.832031 -0.421875 2.09375 -1.453125 C 1.363281 -2.484375 1 -4.101562 1 -6.3125 C 1 -8.550781 1.390625 -10.203125 2.171875 -11.265625 C 2.960938 -12.335938 4.160156 -12.875 5.765625 -12.875 C 6.660156 -12.875 7.4375 -12.664062 8.09375 -12.25 C 8.757812 -11.84375 9.269531 -11.257812 9.625 -10.5 L 9.65625 -10.5 C 9.65625 -10.738281 9.671875 -11.144531 9.703125 -11.71875 C 9.734375 -12.300781 9.765625 -12.617188 9.796875 -12.671875 L 11.796875 -12.671875 C 11.742188 -12.242188 11.71875 -11.367188 11.71875 -10.046875 L 11.71875 -0.359375 C 11.71875 3.203125 9.953125 4.984375 6.421875 4.984375 Z M 9.625 -6.328125 C 9.625 -7.359375 9.484375 -8.25 9.203125 -9 C 8.921875 -9.75 8.523438 -10.316406 8.015625 -10.703125 C 7.503906 -11.097656 6.925781 -11.296875 6.28125 -11.296875 C 5.195312 -11.296875 4.410156 -10.90625 3.921875 -10.125 C 3.429688 -9.34375 3.1875 -8.078125 3.1875 -6.328125 C 3.1875 -4.597656 3.414062 -3.351562 3.875 -2.59375 C 4.332031 -1.84375 5.117188 -1.46875 6.234375 -1.46875 C 6.898438 -1.46875 7.488281 -1.660156 8 -2.046875 C 8.519531 -2.441406 8.921875 -3.003906 9.203125 -3.734375 C 9.484375 -4.460938 9.625 -5.328125 9.625 -6.328125 Z M 9.625 -6.328125 "/>
</g>
</g>
<clipPath id="clip-0">
<path clip-rule="nonzero" d="M 0.332031 0 L 793.039062 0 L 793.039062 445.886719 L 0.332031 445.886719 Z M 0.332031 0 "/>
</clipPath>
</defs>
<g clip-path="url(#clip-0)">
<path fill-rule="evenodd" fill="rgb(100%, 100%, 100%)" fill-opacity="1" d="M 0.332031 0 L 793.039062 0 L 793.039062 445.886719 L 0.332031 445.886719 Z M 0.332031 0 "/>
<path fill-rule="evenodd" fill="rgb(96.861267%, 97.253418%, 96.076965%)" fill-opacity="1" d="M 0.332031 0 L 793.070312 0 L 793.070312 445.914062 L 0.332031 445.914062 Z M 0.332031 0 "/>
</g>
<g fill="rgb(0%, 0%, 0%)" fill-opacity="1">
<use xlink:href="#glyph-0-0" x="39.969693" y="418.67819"/>
</g>
<g fill="rgb(0%, 0%, 0%)" fill-opacity="1">
<use xlink:href="#glyph-0-0" x="395.342229" y="418.67819"/>
</g>
<g fill="rgb(9.01947%, 12.548828%, 12.548828%)" fill-opacity="1">
<use xlink:href="#glyph-1-0" x="754.960598" y="436.458553"/>
</g>
<g fill="rgb(9.01947%, 12.548828%, 12.548828%)" fill-opacity="1">
<use xlink:href="#glyph-1-1" x="770.485036" y="436.458553"/>
</g>
<g fill="rgb(0%, 0%, 0%)" fill-opacity="1">
<use xlink:href="#glyph-2-0" x="23.945194" y="57.162131"/>
<use xlink:href="#glyph-2-1" x="43.443296" y="57.162131"/>
<use xlink:href="#glyph-2-2" x="52.297352" y="57.162131"/>
<use xlink:href="#glyph-2-3" x="71.795454" y="57.162131"/>
<use xlink:href="#glyph-2-4" x="89.567495" y="57.162131"/>
<use xlink:href="#glyph-2-5" x="98.421551" y="57.162131"/>
<use xlink:href="#glyph-2-6" x="107.275607" y="57.162131"/>
</g>
<g fill="rgb(0%, 0%, 0%)" fill-opacity="1">
<use xlink:href="#glyph-2-3" x="124.472294" y="57.162131"/>
<use xlink:href="#glyph-2-7" x="142.244335" y="57.162131"/>
<use xlink:href="#glyph-2-8" x="160.016375" y="57.162131"/>
<use xlink:href="#glyph-2-3" x="177.788416" y="57.162131"/>
<use xlink:href="#glyph-2-9" x="195.560457" y="57.162131"/>
</g>
<g fill="rgb(0%, 0%, 0%)" fill-opacity="1">
<use xlink:href="#glyph-2-3" x="220.428528" y="57.162131"/>
<use xlink:href="#glyph-2-10" x="238.200569" y="57.162131"/>
</g>
<g fill="rgb(0%, 0%, 0%)" fill-opacity="1">
<use xlink:href="#glyph-3-0" x="129.463785" y="129.046652"/>
</g>
<g fill="rgb(0%, 0%, 0%)" fill-opacity="1">
<use xlink:href="#glyph-3-1" x="145.378739" y="129.046652"/>
<use xlink:href="#glyph-3-2" x="152.570326" y="129.046652"/>
<use xlink:href="#glyph-3-3" x="167.005423" y="129.046652"/>
<use xlink:href="#glyph-3-4" x="181.440521" y="129.046652"/>
<use xlink:href="#glyph-3-5" x="190.086002" y="129.046652"/>
</g>
<g fill="rgb(0%, 0%, 0%)" fill-opacity="1">
<use xlink:href="#glyph-3-6" x="211.738648" y="129.046652"/>
<use xlink:href="#glyph-3-7" x="226.173745" y="129.046652"/>
<use xlink:href="#glyph-3-7" x="231.937399" y="129.046652"/>
<use xlink:href="#glyph-3-8" x="237.701054" y="129.046652"/>
<use xlink:href="#glyph-3-1" x="250.682256" y="129.046652"/>
<use xlink:href="#glyph-3-9" x="257.873843" y="129.046652"/>
<use xlink:href="#glyph-3-10" x="272.30894" y="129.046652"/>
<use xlink:href="#glyph-3-11" x="286.744038" y="129.046652"/>
<use xlink:href="#glyph-3-12" x="299.72524" y="129.046652"/>
</g>
<g fill="rgb(0%, 0%, 0%)" fill-opacity="1">
<use xlink:href="#glyph-3-4" x="306.942789" y="129.046652"/>
<use xlink:href="#glyph-3-13" x="315.58827" y="129.046652"/>
<use xlink:href="#glyph-3-14" x="330.023368" y="129.046652"/>
</g>
<g fill="rgb(0%, 0%, 0%)" fill-opacity="1">
<use xlink:href="#glyph-3-12" x="343.030533" y="129.046652"/>
<use xlink:href="#glyph-3-15" x="350.222119" y="129.046652"/>
<use xlink:href="#glyph-3-16" x="355.985773" y="129.046652"/>
<use xlink:href="#glyph-3-10" x="368.966976" y="129.046652"/>
<use xlink:href="#glyph-3-1" x="383.402073" y="129.046652"/>
</g>
<g fill="rgb(0%, 0%, 0%)" fill-opacity="1">
<use xlink:href="#glyph-3-15" x="390.619622" y="129.046652"/>
<use xlink:href="#glyph-3-3" x="396.383276" y="129.046652"/>
<use xlink:href="#glyph-3-2" x="410.818374" y="129.046652"/>
<use xlink:href="#glyph-3-17" x="425.253471" y="129.046652"/>
<use xlink:href="#glyph-3-18" x="433.898952" y="129.046652"/>
<use xlink:href="#glyph-3-10" x="448.33405" y="129.046652"/>
<use xlink:href="#glyph-3-6" x="462.769147" y="129.046652"/>
<use xlink:href="#glyph-3-5" x="477.204245" y="129.046652"/>
<use xlink:href="#glyph-3-1" x="498.830928" y="129.046652"/>
</g>
<g fill="rgb(0%, 0%, 0%)" fill-opacity="1">
<use xlink:href="#glyph-3-19" x="506.048477" y="129.046652"/>
<use xlink:href="#glyph-3-4" x="520.483575" y="129.046652"/>
<use xlink:href="#glyph-3-3" x="529.129056" y="129.046652"/>
<use xlink:href="#glyph-3-14" x="543.564153" y="129.046652"/>
</g>
<g fill="rgb(0%, 0%, 0%)" fill-opacity="1">
<use xlink:href="#glyph-3-10" x="556.571318" y="129.046652"/>
<use xlink:href="#glyph-3-11" x="571.006416" y="129.046652"/>
</g>
<g fill="rgb(0%, 0%, 0%)" fill-opacity="1">
<use xlink:href="#glyph-3-11" x="584.013581" y="129.046652"/>
<use xlink:href="#glyph-3-1" x="596.994784" y="129.046652"/>
<use xlink:href="#glyph-3-14" x="604.18637" y="129.046652"/>
</g>
<g fill="rgb(0%, 0%, 0%)" fill-opacity="1">
<use xlink:href="#glyph-3-6" x="617.193535" y="129.046652"/>
<use xlink:href="#glyph-3-2" x="631.628633" y="129.046652"/>
<use xlink:href="#glyph-3-1" x="646.06373" y="129.046652"/>
</g>
<g fill="rgb(0%, 0%, 0%)" fill-opacity="1">
<use xlink:href="#glyph-3-18" x="234.95441" y="158.066337"/>
<use xlink:href="#glyph-3-10" x="249.389507" y="158.066337"/>
<use xlink:href="#glyph-3-14" x="263.824605" y="158.066337"/>
</g>
<g fill="rgb(0%, 0%, 0%)" fill-opacity="1">
<use xlink:href="#glyph-3-3" x="276.83177" y="158.066337"/>
<use xlink:href="#glyph-3-5" x="291.266868" y="158.066337"/>
<use xlink:href="#glyph-3-10" x="312.893551" y="158.066337"/>
<use xlink:href="#glyph-3-1" x="327.328649" y="158.066337"/>
<use xlink:href="#glyph-3-3" x="334.520235" y="158.066337"/>
<use xlink:href="#glyph-3-4" x="348.955333" y="158.066337"/>
<use xlink:href="#glyph-3-20" x="357.600814" y="158.066337"/>
<use xlink:href="#glyph-3-6" x="372.035911" y="158.066337"/>
<use xlink:href="#glyph-3-2" x="386.471009" y="158.066337"/>
<use xlink:href="#glyph-3-15" x="400.906106" y="158.066337"/>
<use xlink:href="#glyph-3-21" x="406.66976" y="158.066337"/>
</g>
<g fill="rgb(0%, 0%, 0%)" fill-opacity="1">
<use xlink:href="#glyph-3-10" x="419.676925" y="158.066337"/>
<use xlink:href="#glyph-3-9" x="434.112023" y="158.066337"/>
<use xlink:href="#glyph-3-1" x="448.54712" y="158.066337"/>
<use xlink:href="#glyph-3-20" x="455.738707" y="158.066337"/>
<use xlink:href="#glyph-3-4" x="470.173804" y="158.066337"/>
<use xlink:href="#glyph-3-3" x="478.819285" y="158.066337"/>
<use xlink:href="#glyph-3-22" x="493.254383" y="158.066337"/>
<use xlink:href="#glyph-3-12" x="511.999239" y="158.066337"/>
<use xlink:href="#glyph-3-23" x="519.190826" y="158.066337"/>
<use xlink:href="#glyph-3-24" x="533.625923" y="158.066337"/>
</g>
<g fill="rgb(0%, 0%, 0%)" fill-opacity="1">
<use xlink:href="#glyph-4-0" x="143.22404" y="239.662041"/>
<use xlink:href="#glyph-4-1" x="161.856358" y="239.662041"/>
<use xlink:href="#glyph-4-2" x="175.189137" y="239.662041"/>
<use xlink:href="#glyph-4-3" x="181.831547" y="239.662041"/>
<use xlink:href="#glyph-4-4" x="187.155066" y="239.662041"/>
<use xlink:href="#glyph-4-5" x="200.487845" y="239.662041"/>
<use xlink:href="#glyph-4-6" x="207.130255" y="239.662041"/>
</g>
<g fill="rgb(0%, 0%, 0%)" fill-opacity="1">
<use xlink:href="#glyph-4-2" x="213.796645" y="239.662041"/>
<use xlink:href="#glyph-4-7" x="220.439054" y="239.662041"/>
<use xlink:href="#glyph-4-4" x="233.771833" y="239.662041"/>
<use xlink:href="#glyph-4-8" x="247.104612" y="239.662041"/>
</g>
<g fill="rgb(0%, 0%, 0%)" fill-opacity="1">
<use xlink:href="#glyph-4-9" x="260.413411" y="239.662041"/>
<use xlink:href="#glyph-4-10" x="265.736931" y="239.662041"/>
</g>
<g fill="rgb(0%, 0%, 0%)" fill-opacity="1">
<use xlink:href="#glyph-4-11" x="279.04573" y="239.662041"/>
<use xlink:href="#glyph-4-2" x="292.378509" y="239.662041"/>
</g>
<g fill="rgb(0%, 0%, 0%)" fill-opacity="1">
<use xlink:href="#glyph-4-12" x="299.044898" y="239.662041"/>
<use xlink:href="#glyph-4-2" x="313.025132" y="239.662041"/>
<use xlink:href="#glyph-4-13" x="319.667542" y="239.662041"/>
<use xlink:href="#glyph-4-4" x="335.638101" y="239.662041"/>
<use xlink:href="#glyph-4-14" x="348.97088" y="239.662041"/>
<use xlink:href="#glyph-4-15" x="363.598569" y="239.662041"/>
<use xlink:href="#glyph-4-2" x="372.902738" y="239.662041"/>
<use xlink:href="#glyph-4-16" x="379.545148" y="239.662041"/>
<use xlink:href="#glyph-4-8" x="391.535057" y="239.662041"/>
<use xlink:href="#glyph-4-4" x="404.867836" y="239.662041"/>
<use xlink:href="#glyph-4-17" x="418.200615" y="239.662041"/>
<use xlink:href="#glyph-4-9" x="438.175804" y="239.662041"/>
<use xlink:href="#glyph-4-18" x="443.499323" y="239.662041"/>
<use xlink:href="#glyph-4-6" x="455.489232" y="239.662041"/>
<use xlink:href="#glyph-4-19" x="462.131642" y="239.662041"/>
<use xlink:href="#glyph-4-20" x="470.116921" y="239.662041"/>
<use xlink:href="#glyph-4-2" x="482.10683" y="239.662041"/>
<use xlink:href="#glyph-4-12" x="488.74924" y="239.662041"/>
</g>
<g fill="rgb(0%, 0%, 0%)" fill-opacity="1">
<use xlink:href="#glyph-4-2" x="502.753454" y="239.662041"/>
<use xlink:href="#glyph-4-18" x="509.395864" y="239.662041"/>
<use xlink:href="#glyph-4-21" x="521.385773" y="239.662041"/>
<use xlink:href="#glyph-4-19" x="534.718552" y="239.662041"/>
<use xlink:href="#glyph-4-5" x="542.703831" y="239.662041"/>
<use xlink:href="#glyph-4-1" x="549.346241" y="239.662041"/>
<use xlink:href="#glyph-4-16" x="562.67902" y="239.662041"/>
<use xlink:href="#glyph-4-4" x="574.668929" y="239.662041"/>
<use xlink:href="#glyph-4-2" x="588.001708" y="239.662041"/>
</g>
<g fill="rgb(0%, 0%, 0%)" fill-opacity="1">
<use xlink:href="#glyph-4-11" x="240.36183" y="266.388516"/>
</g>
<g fill="rgb(0%, 0%, 0%)" fill-opacity="1">
<use xlink:href="#glyph-4-9" x="253.670629" y="266.388516"/>
<use xlink:href="#glyph-4-5" x="258.994148" y="266.388516"/>
</g>
<g fill="rgb(0%, 0%, 0%)" fill-opacity="1">
<use xlink:href="#glyph-4-5" x="265.228901" y="266.388516"/>
</g>
<g fill="rgb(0%, 0%, 0%)" fill-opacity="1">
<use xlink:href="#glyph-4-21" x="271.89529" y="266.388516"/>
<use xlink:href="#glyph-4-18" x="285.228069" y="266.388516"/>
<use xlink:href="#glyph-4-9" x="297.217978" y="266.388516"/>
<use xlink:href="#glyph-4-22" x="302.541498" y="266.388516"/>
<use xlink:href="#glyph-4-10" x="315.874277" y="266.388516"/>
<use xlink:href="#glyph-4-2" x="329.207056" y="266.388516"/>
<use xlink:href="#glyph-4-12" x="335.849466" y="266.388516"/>
<use xlink:href="#glyph-4-2" x="349.8297" y="266.388516"/>
</g>
<g fill="rgb(0%, 0%, 0%)" fill-opacity="1">
<use xlink:href="#glyph-4-18" x="356.496089" y="266.388516"/>
<use xlink:href="#glyph-4-4" x="368.485998" y="266.388516"/>
<use xlink:href="#glyph-4-3" x="381.818777" y="266.388516"/>
<use xlink:href="#glyph-4-5" x="387.142297" y="266.388516"/>
<use xlink:href="#glyph-4-23" x="393.784706" y="266.388516"/>
<use xlink:href="#glyph-4-17" x="401.769986" y="266.388516"/>
<use xlink:href="#glyph-4-1" x="421.745174" y="266.388516"/>
<use xlink:href="#glyph-4-18" x="435.077953" y="266.388516"/>
<use xlink:href="#glyph-4-24" x="447.067862" y="266.388516"/>
<use xlink:href="#glyph-4-9" x="459.057772" y="266.388516"/>
<use xlink:href="#glyph-4-10" x="464.381291" y="266.388516"/>
<use xlink:href="#glyph-4-25" x="477.71407" y="266.388516"/>
</g>
<g fill="rgb(0%, 0%, 0%)" fill-opacity="1">
<use xlink:href="#glyph-2-11" x="293.447228" y="359.36537"/>
</g>
<g fill="rgb(0%, 0%, 0%)" fill-opacity="1">
<use xlink:href="#glyph-2-12" x="318.3153" y="359.36537"/>
<use xlink:href="#glyph-2-8" x="337.813402" y="359.36537"/>
<use xlink:href="#glyph-2-13" x="355.585442" y="359.36537"/>
<use xlink:href="#glyph-2-14" x="373.357483" y="359.36537"/>
<use xlink:href="#glyph-2-1" x="384.001529" y="359.36537"/>
<use xlink:href="#glyph-2-15" x="392.855585" y="359.36537"/>
<use xlink:href="#glyph-2-2" x="412.353687" y="359.36537"/>
</g>
<g fill="rgb(0%, 0%, 0%)" fill-opacity="1">
<use xlink:href="#glyph-2-13" x="431.883754" y="359.36537"/>
<use xlink:href="#glyph-2-16" x="449.655794" y="359.36537"/>
</g>
</svg>
